<svg width="40" height="40" viewBox="0 0 40 40" fill="none" xmlns="http://www.w3.org/2000/svg">
<path d="M12.9167 14.3334L20.0001 18.5834L27.0834 14.3334" stroke="#666666" stroke-width="2.125" stroke-linecap="round" stroke-linejoin="round"/>
<path d="M17.1666 31.3333H8.66662C7.91517 31.3333 7.1945 31.0348 6.66315 30.5034C6.13179 29.9721 5.83328 29.2514 5.83328 28.5V11.5C5.83328 10.7485 6.13179 10.0279 6.66315 9.49651C7.1945 8.96515 7.91517 8.66664 8.66662 8.66664H31.3333C32.0847 8.66664 32.8054 8.96515 33.3368 9.49651C33.8681 10.0279 34.1666 10.7485 34.1666 11.5V21.2141" stroke="#666666" stroke-width="2.125" stroke-linecap="round"/>
<path d="M27.4268 24.9857C27.7224 26.883 29.2622 28.3334 31.1733 28.5259" stroke="#0968D3" stroke-width="1.3" stroke-miterlimit="10" stroke-linecap="round" stroke-linejoin="round"/>
<path d="M28.3677 23.9893L22.7241 29.9629C22.511 30.1897 22.3047 30.6366 22.2635 30.9459L22.0092 33.1731C21.9198 33.9774 22.4972 34.5273 23.2946 34.3899L25.5081 34.0118C25.8174 33.9568 26.2505 33.7299 26.4636 33.4962L32.1073 27.5226C33.0834 26.4915 33.5234 25.316 32.0042 23.8793C30.4919 22.4563 29.3439 22.9581 28.3677 23.9893Z" stroke="#0968D3" stroke-width="1.3" stroke-miterlimit="10" stroke-linecap="round" stroke-linejoin="round"/>
</svg>
