<svg width="22" height="19" viewBox="0 0 22 19" fill="none" xmlns="http://www.w3.org/2000/svg">
<path d="M21 2.01C20 2.5 19.02 2.699 18 3C16.879 1.735 15.217 1.665 13.62 2.263C12.023 2.861 10.977 4.323 11 6V7C7.755 7.083 4.865 5.605 3 3C3 3 -1.182 10.433 7 14C5.128 15.247 3.261 16.088 1 16C4.308 17.803 7.913 18.423 11.034 17.517C14.614 16.477 17.556 13.794 18.685 9.775C19.0218 8.55267 19.189 7.28986 19.182 6.022C19.182 5.773 20.692 3.25 21 2.009V2.01Z" stroke="#666666" stroke-width="2" stroke-linecap="round" stroke-linejoin="round"/>
</svg>
