<svg width="40" height="40" viewBox="0 0 40 40" fill="none" xmlns="http://www.w3.org/2000/svg">
<path d="M12.9167 14.3334L20.0001 18.5834L27.0834 14.3334" stroke="#666666" stroke-width="2.125" stroke-linecap="round" stroke-linejoin="round"/>
<path d="M17.1666 31.3333H8.66662C7.91517 31.3333 7.1945 31.0348 6.66315 30.5034C6.1318 29.9721 5.83329 29.2514 5.83329 28.5V11.5C5.83329 10.7485 6.1318 10.0279 6.66315 9.49651C7.1945 8.96515 7.91517 8.66664 8.66662 8.66664H31.3333C32.0847 8.66664 32.8054 8.96515 33.3368 9.49651C33.8681 10.0279 34.1666 10.7485 34.1666 11.5V21.2141" stroke="#666666" stroke-width="2.125" stroke-linecap="round"/>
<path d="M21.4167 27.2406H30.3417C35.4417 27.2406 35.4417 34.1667 30.3417 34.1667M21.4167 27.2406L25.8792 22.8334M21.4167 27.2406L25.8792 31.6479" stroke="#0968D3" stroke-width="2.125" stroke-linecap="round" stroke-linejoin="round"/>
</svg>
