<svg width="411" height="73" viewBox="0 0 411 73" fill="none" xmlns="http://www.w3.org/2000/svg">
<path d="M34.9 72.9C27.3667 72.9 21 71.4667 15.8 68.6C10.6667 65.7333 6.76667 61.6 4.1 56.2C1.43333 50.8 0.1 44.3333 0.1 36.8C0.1 31.2 0.833334 26.1667 2.3 21.7C3.83333 17.2333 6.03333 13.4667 8.9 10.4C11.8333 7.26666 15.3667 4.86666 19.5 3.2C23.7 1.46666 28.4333 0.599995 33.7 0.599995C37.9 0.599995 41.9667 1.2 45.9 2.4C49.8333 3.53333 53.3333 5.36666 56.4 7.9C57.2 8.5 57.7 9.16666 57.9 9.89999C58.1 10.6333 58.0667 11.3667 57.8 12.1C57.6 12.8333 57.2333 13.4667 56.7 14C56.2333 14.4667 55.6 14.7333 54.8 14.8C54.0667 14.8667 53.3 14.6333 52.5 14.1C49.7667 11.9667 46.8667 10.4333 43.8 9.5C40.7333 8.5 37.3333 8 33.6 8C28.2667 8 23.7333 9.13333 20 11.4C16.3333 13.6667 13.5333 16.9333 11.6 21.2C9.73333 25.4667 8.8 30.6667 8.8 36.8C8.8 46.1333 10.9667 53.2667 15.3 58.2C19.7 63.1333 26.3 65.6 35.1 65.6C38.3 65.6 41.4333 65.3 44.5 64.7C47.5667 64.0333 50.4667 63.1333 53.2 62L51.4 66.7V41.8H37.1C35.9 41.8 35 41.5 34.4 40.9C33.8 40.3 33.5 39.5 33.5 38.5C33.5 37.4333 33.8 36.6333 34.4 36.1C35 35.5667 35.9 35.3 37.1 35.3H55C56.1333 35.3 57 35.6 57.6 36.2C58.2 36.8 58.5 37.6667 58.5 38.8V64.9C58.5 65.9 58.3333 66.7333 58 67.4C57.6667 68.0667 57.1 68.5667 56.3 68.9C53.5 70.0333 50.1333 71 46.2 71.8C42.3333 72.5333 38.5667 72.9 34.9 72.9ZM96.0586 72.9C90.9253 72.9 86.4919 71.9 82.7586 69.9C79.0919 67.8333 76.2253 64.9333 74.1586 61.2C72.1586 57.4667 71.1586 53 71.1586 47.8C71.1586 42.7333 72.1586 38.3333 74.1586 34.6C76.1586 30.8 78.8919 27.8333 82.3586 25.7C85.8919 23.5667 89.9586 22.5 94.5586 22.5C97.8253 22.5 100.759 23.0667 103.359 24.2C105.959 25.2667 108.159 26.8333 109.959 28.9C111.825 30.9667 113.225 33.4667 114.159 36.4C115.159 39.3333 115.659 42.6333 115.659 46.3C115.659 47.3667 115.359 48.1667 114.759 48.7C114.159 49.1667 113.292 49.4 112.159 49.4H77.3586V44.1H110.259L108.659 45.4C108.659 41.8 108.125 38.7667 107.059 36.3C105.992 33.7667 104.425 31.8333 102.359 30.5C100.359 29.1667 97.8253 28.5 94.7586 28.5C91.3586 28.5 88.4586 29.3 86.0586 30.9C83.7253 32.4333 81.9586 34.6 80.7586 37.4C79.5586 40.1333 78.9586 43.3333 78.9586 47V47.6C78.9586 53.7333 80.4253 58.4 83.3586 61.6C86.3586 64.8 90.5919 66.4 96.0586 66.4C98.3253 66.4 100.559 66.1 102.759 65.5C105.025 64.9 107.225 63.9 109.359 62.5C110.292 61.9 111.125 61.6333 111.859 61.7C112.659 61.7 113.292 61.9333 113.759 62.4C114.225 62.8 114.525 63.3333 114.659 64C114.859 64.6 114.792 65.2667 114.459 66C114.192 66.7333 113.625 67.3667 112.759 67.9C110.559 69.5 107.959 70.7333 104.959 71.6C101.959 72.4667 98.9919 72.9 96.0586 72.9ZM131.381 72.7C130.048 72.7 129.048 72.3333 128.381 71.6C127.715 70.8667 127.381 69.8333 127.381 68.5V26.8C127.381 25.4667 127.715 24.4667 128.381 23.8C129.048 23.0667 130.015 22.7 131.281 22.7C132.548 22.7 133.515 23.0667 134.181 23.8C134.915 24.4667 135.281 25.4667 135.281 26.8V35.4L134.181 34.2C135.581 30.3333 137.848 27.4333 140.981 25.5C144.181 23.5 147.848 22.5 151.981 22.5C155.848 22.5 159.048 23.2 161.581 24.6C164.181 26 166.115 28.1333 167.381 31C168.648 33.8 169.281 37.3667 169.281 41.7V68.5C169.281 69.8333 168.915 70.8667 168.181 71.6C167.515 72.3333 166.548 72.7 165.281 72.7C163.948 72.7 162.915 72.3333 162.181 71.6C161.515 70.8667 161.181 69.8333 161.181 68.5V42.2C161.181 37.6667 160.281 34.3667 158.481 32.3C156.748 30.1667 153.948 29.1 150.081 29.1C145.615 29.1 142.048 30.5 139.381 33.3C136.781 36.0333 135.481 39.7 135.481 44.3V68.5C135.481 71.3 134.115 72.7 131.381 72.7ZM189.417 72.7C188.084 72.7 187.051 72.3333 186.317 71.6C185.651 70.8 185.317 69.7333 185.317 68.4V5.7C185.317 4.3 185.684 3.26667 186.417 2.6C187.151 1.86666 188.184 1.5 189.517 1.5H213.217C220.751 1.5 226.551 3.36666 230.617 7.1C234.684 10.7667 236.717 15.9667 236.717 22.7C236.717 29.3667 234.684 34.5667 230.617 38.3C226.551 42.0333 220.751 43.9 213.217 43.9H193.517V68.4C193.517 69.7333 193.184 70.8 192.517 71.6C191.851 72.3333 190.817 72.7 189.417 72.7ZM193.517 37H212.217C217.617 37 221.684 35.8 224.417 33.4C227.217 30.9333 228.617 27.3667 228.617 22.7C228.617 17.9667 227.217 14.4 224.417 12C221.684 9.53333 217.617 8.3 212.217 8.3H193.517V37ZM250.622 72.7C249.289 72.7 248.255 72.3333 247.522 71.6C246.855 70.8667 246.522 69.8333 246.522 68.5V26.8C246.522 25.4667 246.855 24.4667 247.522 23.8C248.189 23.0667 249.155 22.7 250.422 22.7C251.689 22.7 252.655 23.0667 253.322 23.8C254.055 24.4667 254.422 25.4667 254.422 26.8V34.9H253.422C254.489 30.9667 256.522 27.9333 259.522 25.8C262.522 23.6667 266.222 22.5333 270.622 22.4C271.622 22.3333 272.422 22.5667 273.022 23.1C273.622 23.5667 273.955 24.4 274.022 25.6C274.089 26.7333 273.822 27.6333 273.222 28.3C272.622 28.9667 271.689 29.3667 270.422 29.5L268.822 29.7C264.289 30.1 260.789 31.5667 258.322 34.1C255.922 36.5667 254.722 39.9667 254.722 44.3V68.5C254.722 69.8333 254.355 70.8667 253.622 71.6C252.955 72.3333 251.955 72.7 250.622 72.7ZM297.173 72.9C293.84 72.9 290.84 72.2667 288.173 71C285.573 69.6667 283.507 67.8667 281.973 65.6C280.44 63.3333 279.673 60.8 279.673 58C279.673 54.4 280.573 51.5667 282.373 49.5C284.24 47.4333 287.273 45.9667 291.473 45.1C295.74 44.2333 301.54 43.8 308.873 43.8H313.373V49.1H308.973C303.573 49.1 299.307 49.3667 296.173 49.9C293.107 50.3667 290.94 51.2 289.673 52.4C288.473 53.6 287.873 55.3 287.873 57.5C287.873 60.2333 288.807 62.4667 290.673 64.2C292.607 65.9333 295.207 66.8 298.473 66.8C301.14 66.8 303.473 66.1667 305.473 64.9C307.54 63.6333 309.14 61.9 310.273 59.7C311.473 57.5 312.073 54.9667 312.073 52.1V40.7C312.073 36.5667 311.24 33.6 309.573 31.8C307.907 29.9333 305.173 29 301.373 29C299.04 29 296.707 29.3 294.373 29.9C292.04 30.5 289.573 31.4667 286.973 32.8C286.04 33.2667 285.24 33.4333 284.573 33.3C283.907 33.1 283.373 32.7333 282.973 32.2C282.573 31.6667 282.34 31.0667 282.273 30.4C282.207 29.6667 282.34 28.9667 282.673 28.3C283.073 27.6333 283.673 27.1 284.473 26.7C287.407 25.2333 290.307 24.1667 293.173 23.5C296.04 22.8333 298.773 22.5 301.373 22.5C305.573 22.5 309.04 23.2 311.773 24.6C314.507 25.9333 316.54 28 317.873 30.8C319.207 33.5333 319.873 37.0667 319.873 41.4V68.5C319.873 69.8333 319.54 70.8667 318.873 71.6C318.273 72.3333 317.373 72.7 316.173 72.7C314.907 72.7 313.94 72.3333 313.273 71.6C312.607 70.8667 312.273 69.8333 312.273 68.5V60.7H313.173C312.64 63.2333 311.607 65.4 310.073 67.2C308.607 69 306.773 70.4 304.573 71.4C302.373 72.4 299.907 72.9 297.173 72.9ZM354.401 72.9C350.601 72.9 347.401 72.2333 344.801 70.9C342.267 69.5 340.367 67.5 339.101 64.9C337.834 62.2333 337.201 59 337.201 55.2V29.7H330.501C329.367 29.7 328.501 29.4333 327.901 28.9C327.301 28.3 327.001 27.5 327.001 26.5C327.001 25.5 327.301 24.7333 327.901 24.2C328.501 23.6667 329.367 23.4 330.501 23.4H337.201V11.9C337.201 10.5667 337.567 9.56666 338.301 8.9C339.034 8.16666 340.034 7.8 341.301 7.8C342.567 7.8 343.534 8.16666 344.201 8.9C344.934 9.56666 345.301 10.5667 345.301 11.9V23.4H357.901C359.034 23.4 359.901 23.6667 360.501 24.2C361.101 24.7333 361.401 25.5 361.401 26.5C361.401 27.5 361.101 28.3 360.501 28.9C359.901 29.4333 359.034 29.7 357.901 29.7H345.301V54.4C345.301 58.2 346.101 61.1 347.701 63.1C349.301 65.0333 351.901 66 355.501 66C356.767 66 357.834 65.8667 358.701 65.6C359.634 65.3333 360.401 65.2 361.001 65.2C361.601 65.1333 362.101 65.3333 362.501 65.8C362.901 66.2667 363.101 67.0667 363.101 68.2C363.101 69 362.934 69.7333 362.601 70.4C362.334 71.0667 361.834 71.5333 361.101 71.8C360.301 72.0667 359.234 72.3 357.901 72.5C356.634 72.7667 355.467 72.9 354.401 72.9ZM391.273 72.9C386.14 72.9 381.707 71.9 377.973 69.9C374.307 67.8333 371.44 64.9333 369.373 61.2C367.373 57.4667 366.373 53 366.373 47.8C366.373 42.7333 367.373 38.3333 369.373 34.6C371.373 30.8 374.107 27.8333 377.573 25.7C381.107 23.5667 385.173 22.5 389.773 22.5C393.04 22.5 395.973 23.0667 398.573 24.2C401.173 25.2667 403.373 26.8333 405.173 28.9C407.04 30.9667 408.44 33.4667 409.373 36.4C410.373 39.3333 410.873 42.6333 410.873 46.3C410.873 47.3667 410.573 48.1667 409.973 48.7C409.373 49.1667 408.507 49.4 407.373 49.4H372.573V44.1H405.473L403.873 45.4C403.873 41.8 403.34 38.7667 402.273 36.3C401.207 33.7667 399.64 31.8333 397.573 30.5C395.573 29.1667 393.04 28.5 389.973 28.5C386.573 28.5 383.673 29.3 381.273 30.9C378.94 32.4333 377.173 34.6 375.973 37.4C374.773 40.1333 374.173 43.3333 374.173 47V47.6C374.173 53.7333 375.64 58.4 378.573 61.6C381.573 64.8 385.807 66.4 391.273 66.4C393.54 66.4 395.773 66.1 397.973 65.5C400.24 64.9 402.44 63.9 404.573 62.5C405.507 61.9 406.34 61.6333 407.073 61.7C407.873 61.7 408.507 61.9333 408.973 62.4C409.44 62.8 409.74 63.3333 409.873 64C410.073 64.6 410.007 65.2667 409.673 66C409.407 66.7333 408.84 67.3667 407.973 67.9C405.773 69.5 403.173 70.7333 400.173 71.6C397.173 72.4667 394.207 72.9 391.273 72.9Z" fill="#333333"/>
</svg>
