<svg width="8" height="10" viewBox="0 0 8 10" fill="none" xmlns="http://www.w3.org/2000/svg" class="h-2.5 w-2.5"><path d="M6.93559 5.46779C6.774 5.18432 6.5595 4.94014 6.30586 4.74997C6.75442 4.2058 6.99058 3.49734 6.96559 2.77155C6.96559 0.943058 5.71939 -0.0175841 4.01013 0.000243701H0.928115C0.382093 0.0417595 -0.0310672 0.546642 0.00183636 1.13233V8.86775C-0.0310661 9.45344 0.382093 9.95833 0.928115 9.99984H4.21335C6.03925 10.0141 7.32543 9.08203 7.33204 7.12134C7.34829 6.54101 7.21085 5.96779 6.93554 5.46781L6.93559 5.46779ZM2.00102 1.78579H3.75698C4.51333 1.80007 5.01981 2.0322 5.02311 2.86431C5.01645 3.68212 4.50666 3.91784 3.75698 3.92855H2.00102V1.78579ZM3.94357 8.21407H2.00102V6.07131H3.94357C5.09977 6.07131 5.24969 6.64271 5.24969 7.14269C5.24969 7.64266 5.09975 8.21407 3.94357 8.21407Z" fill="#382868"></path></svg>