<svg width="13" height="13" viewBox="0 0 11 10" fill="none" xmlns="http://www.w3.org/2000/svg" class="mr-2 text-purple-400"><path d="M10.1539 5.83299H4.51316C4.046 5.83299 3.66706 5.45975 3.66706 4.99961C3.66706 4.53886 4.046 4.16622 4.51316 4.16622L10.1539 4.16561C10.6211 4.16561 11 4.53886 11 4.999C11 5.45975 10.6211 5.83238 10.1539 5.83238V5.83299ZM10.1539 1.94262H4.51316C4.046 1.94262 3.66706 1.56937 3.66706 1.10923C3.66706 0.648485 4.046 0.275848 4.51316 0.275848L10.1539 0.275236C10.6211 0.275236 11 0.648483 11 1.10862C11 1.56876 10.6211 1.94201 10.1539 1.94201V1.94262ZM1.12751 10C0.505041 10 0 9.50315 0 8.88944C0 8.27632 0.504436 7.77887 1.12751 7.77887C1.74998 7.77887 2.25502 8.27573 2.25502 8.88944C2.25626 9.50131 1.75183 10 1.12751 10ZM1.12751 6.10962C0.505041 6.10962 0 5.61277 0 4.99906C0 4.38535 0.504436 3.8885 1.12751 3.8885C1.74998 3.8885 2.25502 4.38535 2.25502 4.99906C2.25502 5.61277 1.75183 6.10962 1.12751 6.10962ZM1.12751 2.22113C0.505041 2.22113 0 1.72427 0 1.11056C0 0.49745 0.504436 0 1.12751 0C1.74998 0 2.25502 0.496855 2.25502 1.11056C2.25502 1.72368 1.75183 2.22113 1.12751 2.22113ZM4.51316 8.05356L10.1539 8.05417C10.6211 8.05417 11 8.42742 11 8.88756C11 9.34831 10.6211 9.72094 10.1539 9.72094H4.51316C4.046 9.72094 3.66706 9.34769 3.66706 8.88756C3.66706 8.42681 4.046 8.05417 4.51316 8.05417V8.05356Z" fill="#382868"></path></svg>