<svg width="13" height="13" viewBox="0 0 17 8" fill="none" xmlns="http://www.w3.org/2000/svg" class="mr-2 text-purple-400"><path d="M1.38594 5.00012V2.99988C1.38594 2.10929 2.11188 1.38456 3.00396 1.38456H7.39571V0H3.00488C1.34804 0 0 1.34579 0 2.99988V5.00012C0 6.65421 1.34804 8 3.00488 8H7.39663V6.61544H3.00488C2.1119 6.61544 1.38687 5.89161 1.38597 5.00012H1.38594ZM13.9951 0H9.60337V1.38456H13.9951C14.8872 1.38456 15.6131 2.10929 15.6131 2.99988V5.00012C15.6131 5.89071 14.8872 6.61544 13.9951 6.61544H9.60337V8H13.9951C15.652 8 17 6.65421 17 5.00012V2.99988C17 1.34579 15.652 0 13.9951 0ZM4.14165 4.69274H12.8593V3.30818H4.14165V4.69274Z" fill="#382868"></path></svg>